<?xml version="1.0" standalone="no"?>
<svg version="1.0" xmlns="http://www.w3.org/2000/svg"
 width="300.000000pt" height="300.000000pt" viewBox="0 0 300.000000 300.000000"
 preserveAspectRatio="xMidYMid meet">
<g transform="translate(0.000000,300.000000) scale(0.100000,-0.100000)"
fill="#000000" stroke="none">
<path d="M1403 2489 c-339 -31 -643 -229 -817 -530 -101 -176 -150 -456 -116
-667 61 -379 325 -698 681 -821 349 -121 720 -57 1004 172 248 202 385 489
385 811 0 121 -12 199 -46 309 -54 168 -128 292 -254 418 -223 226 -525 337
-837 308z m285 -55 c331 -68 605 -287 731 -583 61 -145 75 -218 75 -401 0
-171 -7 -219 -55 -348 -116 -316 -386 -549 -728 -629 -106 -25 -318 -24 -425
1 -162 37 -284 96 -408 195 -173 137 -282 301 -344 516 -35 122 -44 333 -20
454 83 410 379 707 791 795 95 20 286 20 383 0z"/>
<path d="M1172 2105 c-53 -16 -68 -29 -93 -76 -48 -94 0 -231 108 -314 24 -18
79 -45 123 -61 50 -17 80 -33 80 -42 0 -8 -22 -41 -50 -74 -27 -33 -50 -66
-50 -74 0 -7 16 -29 35 -49 20 -20 30 -35 22 -35 -8 0 -25 -9 -39 -19 -23 -19
-24 -19 -48 0 -32 24 -41 24 -73 -1 l-26 -20 -33 20 c-44 26 -112 27 -145 0
-25 -20 -25 -20 -50 0 -39 30 -116 28 -149 -5 l-24 -24 -36 24 c-53 36 -98 33
-139 -8 -32 -32 -34 -37 -33 -103 1 -81 8 -98 48 -119 40 -21 92 -19 123 5 31
25 33 25 64 0 35 -27 111 -27 146 0 25 20 25 20 50 0 29 -23 48 -25 65 -8 9 9
18 9 37 0 38 -17 53 -15 80 12 22 22 23 28 13 56 -7 22 -7 35 0 42 8 8 17 -3
32 -34 11 -25 32 -56 45 -68 23 -22 25 -22 50 -6 13 9 37 40 52 69 l27 52 8
-44 c11 -65 40 -91 102 -91 37 0 55 5 72 21 l23 21 34 -21 c43 -27 104 -27
137 -1 26 20 50 26 50 12 0 -5 11 -15 25 -22 26 -14 27 -13 137 61 l26 18 45
-44 c39 -40 50 -45 88 -45 65 0 139 60 139 113 0 9 5 17 10 17 6 0 10 -18 10
-40 0 -42 33 -90 63 -90 27 0 59 48 65 97 2 26 13 60 23 75 26 35 24 53 -7 77
-37 29 -131 29 -168 0 l-26 -21 -36 22 c-48 30 -114 24 -155 -16 l-29 -28 -22
21 c-36 33 -63 43 -113 43 -37 0 -51 -5 -70 -26 l-24 -26 -31 26 c-23 19 -43
26 -72 26 l-40 0 31 35 c17 20 31 41 31 47 0 6 -25 40 -55 75 -30 36 -55 70
-55 77 0 7 38 27 83 44 137 52 207 116 243 224 41 124 -30 238 -149 238 -56 0
-135 -40 -182 -92 -38 -42 -85 -130 -85 -160 0 -10 -4 -18 -10 -18 -5 0 -10 6
-10 13 0 27 -51 119 -90 161 -68 74 -152 104 -228 81z m123 -49 c52 -24 103
-73 130 -127 9 -17 25 -74 35 -127 10 -53 23 -108 28 -122 l10 -25 12 30 c7
17 18 66 26 110 20 111 30 138 74 194 47 59 108 91 174 91 42 0 53 -5 83 -35
34 -34 35 -37 31 -99 -7 -116 -84 -203 -215 -246 -71 -23 -153 -65 -153 -79 0
-4 34 -43 75 -86 41 -43 74 -79 73 -79 -2 -1 -15 -12 -30 -24 l-26 -24 -17 34
c-9 18 -37 57 -63 86 l-48 53 -50 -63 c-28 -35 -54 -71 -57 -81 -7 -17 -8 -17
-37 3 -31 22 -39 40 -17 41 11 0 127 130 127 142 0 11 -69 45 -133 66 -83 28
-138 65 -178 119 -76 103 -69 221 16 258 43 19 73 17 130 -10z m259 -605 c25
-33 56 -63 67 -66 19 -6 20 -8 3 -26 -22 -24 -30 -24 -61 1 -32 25 -104 27
-139 3 -22 -14 -27 -14 -40 -2 -12 13 -7 22 41 74 30 33 55 63 55 68 0 23 33
0 74 -52z m-846 -127 c45 -31 10 -62 -38 -32 -15 9 -22 10 -31 1 -17 -17 -2
-33 32 -33 38 0 72 -34 64 -63 -10 -32 -34 -47 -77 -47 -37 0 -78 26 -78 50 0
14 36 13 59 -2 19 -12 51 -5 51 10 0 5 -19 13 -42 18 -50 11 -74 44 -56 78 6
12 16 24 22 28 19 13 71 9 94 -8z m212 -8 c0 -23 -3 -24 -35 -19 -28 4 -35 2
-35 -10 0 -10 11 -17 32 -19 21 -2 32 -9 34 -20 2 -14 -5 -18 -32 -18 -28 0
-34 -4 -34 -21 0 -19 4 -20 35 -15 33 6 35 5 35 -19 0 -24 -2 -25 -60 -25
l-60 0 0 95 0 95 60 0 c57 0 60 -1 60 -24z m197 9 c28 -20 33 -47 16 -83 -14
-29 -13 -33 7 -62 l21 -30 -30 0 c-24 0 -34 7 -46 30 -9 17 -23 30 -31 30 -12
0 -15 -7 -12 -30 4 -27 2 -30 -24 -30 l-28 0 0 95 0 95 53 0 c30 0 62 -6 74
-15z m139 -22 c33 -84 30 -82 49 -20 17 52 21 57 47 57 29 0 35 -9 19 -25 -5
-6 -24 -45 -41 -87 -18 -43 -38 -78 -44 -78 -9 0 -62 102 -94 182 -2 4 8 8 23
8 21 0 29 -7 41 -37z m294 13 c0 -23 -3 -24 -35 -19 -28 4 -35 2 -35 -11 0
-12 9 -16 35 -16 28 0 35 -4 35 -20 0 -16 -7 -20 -35 -20 -29 0 -35 -4 -35
-21 0 -18 5 -20 38 -17 32 3 37 0 40 -19 3 -22 0 -23 -62 -23 l-66 0 0 95 0
95 60 0 c57 0 60 -1 60 -24z m192 7 c26 -23 23 -43 -7 -43 -14 0 -25 5 -25 10
0 14 -37 13 -46 -1 -8 -14 14 -29 45 -29 14 0 33 -7 43 -17 41 -37 5 -93 -62
-93 -39 0 -80 26 -80 50 0 14 36 13 59 -2 19 -12 51 -5 51 11 0 5 -17 12 -37
16 -21 4 -44 11 -50 17 -18 15 -16 58 4 80 20 23 80 24 105 1z m216 1 c16 -11
22 -25 22 -51 0 -47 -24 -73 -67 -73 -29 0 -33 -3 -33 -25 0 -20 -5 -25 -25
-25 -25 0 -25 0 -25 95 l0 95 53 0 c31 0 61 -6 75 -16z m225 4 c34 -18 46 -40
47 -84 0 -88 -98 -127 -161 -65 -77 78 17 201 114 149z m237 -13 c0 -19 -5
-24 -21 -22 -21 2 -22 -2 -20 -70 2 -72 2 -73 -23 -73 -26 0 -26 1 -26 76 l0
76 -25 -6 c-22 -6 -25 -3 -25 19 0 24 2 25 70 25 68 0 70 -1 70 -25z"/>
<path d="M1243 2038 c2 -7 11 -12 19 -12 10 1 14 -5 11 -15 -5 -20 42 -67 52
-52 10 17 -4 31 -23 24 -14 -5 -14 -3 3 17 11 13 15 21 9 17 -6 -4 -19 2 -29
13 -20 22 -49 27 -42 8z"/>
<path d="M1135 2010 c-17 -33 -15 -47 5 -35 6 4 9 13 6 20 -2 7 3 12 12 11 19
-1 23 25 5 31 -6 2 -19 -10 -28 -27z"/>
<path d="M1754 2029 c-10 -17 13 -36 27 -22 12 12 4 33 -11 33 -5 0 -12 -5
-16 -11z"/>
<path d="M1644 1998 c-5 -7 -2 -9 9 -5 11 4 14 2 11 -7 -6 -17 23 -29 32 -14
4 6 -1 17 -11 25 -23 16 -32 16 -41 1z"/>
<path d="M1341 1959 c-17 -14 -21 -23 -13 -31 13 -13 35 0 28 18 -3 8 0 11 10
7 7 -3 14 0 14 5 0 20 -15 20 -39 1z"/>
<path d="M1620 1965 c0 -18 36 -39 45 -25 11 18 -6 32 -23 18 -13 -11 -15 -10
-9 5 3 9 2 17 -3 17 -6 0 -10 -7 -10 -15z"/>
<path d="M1820 1967 c0 -21 12 -28 27 -15 12 10 14 8 11 -7 -1 -10 3 -20 10
-22 18 -7 14 22 -6 40 -22 20 -42 22 -42 4z"/>
<path d="M1204 1959 c-10 -17 13 -36 27 -22 12 12 4 33 -11 33 -5 0 -12 -5
-16 -11z"/>
<path d="M1703 1949 c4 -15 2 -19 -8 -15 -18 6 -31 -12 -18 -25 12 -12 58 35
48 50 -11 19 -28 12 -22 -10z"/>
<path d="M1597 1935 c-4 -9 -3 -13 3 -10 6 3 10 -1 10 -11 0 -12 6 -15 21 -11
15 4 19 2 15 -8 -6 -17 12 -31 25 -18 6 6 -3 20 -21 38 -16 16 -30 25 -30 19
0 -5 -4 -3 -9 4 -7 11 -9 10 -14 -3z"/>
<path d="M1736 1935 c-6 -17 9 -29 25 -20 6 4 9 0 7 -11 -2 -11 3 -19 11 -19
25 0 21 19 -9 42 -23 19 -29 20 -34 8z"/>
<path d="M1795 1940 c-8 -13 55 -71 68 -63 13 8 -14 45 -29 39 -10 -4 -14 0
-12 11 4 19 -17 29 -27 13z"/>
<path d="M1136 1901 c-3 -4 3 -16 14 -26 21 -19 28 -41 10 -30 -5 3 -10 1 -10
-4 0 -15 12 -14 35 2 20 15 12 42 -10 33 -8 -3 -11 2 -8 15 5 19 -20 28 -31
10z"/>
<path d="M1705 1900 c-7 -12 32 -49 53 -50 6 0 12 7 12 16 0 11 -6 15 -20 11
-15 -4 -20 -1 -18 10 4 19 -17 29 -27 13z"/>
<path d="M1265 1890 c-8 -12 26 -60 40 -56 17 5 11 31 -7 28 -12 -2 -15 3 -11
18 5 20 -11 28 -22 10z"/>
<path d="M1394 1886 c-14 -11 -16 -18 -8 -26 12 -12 26 1 30 28 3 15 2 15 -22
-2z"/>
<path d="M1575 1868 c-14 -35 -13 -44 5 -33 6 4 9 14 6 22 -4 8 -2 11 5 7 12
-7 31 15 23 28 -10 17 -25 7 -39 -24z"/>
<path d="M1662 1852 c-15 -17 -22 -20 -18 -10 6 20 -8 33 -25 23 -7 -5 -2 -16
12 -31 27 -29 53 -32 46 -5 -3 12 1 18 12 17 9 0 16 5 16 13 0 24 -19 21 -43
-7z"/>
<path d="M1775 1851 c-9 -16 5 -33 22 -27 16 6 10 -7 -15 -36 -8 -10 -11 -18
-6 -18 11 0 74 72 73 85 0 6 -6 1 -14 -9 -14 -18 -16 -19 -34 -2 -12 11 -21
14 -26 7z"/>
<path d="M1188 1831 c-15 -18 -15 -21 8 -42 13 -12 24 -19 24 -14 0 5 11 -2
24 -14 15 -14 26 -19 31 -12 10 17 -4 31 -23 24 -15 -6 -15 -4 2 15 22 25 38
29 30 8 -6 -17 14 -32 26 -20 11 12 -35 68 -48 60 -6 -4 -9 -13 -5 -21 4 -11
1 -13 -11 -9 -10 4 -18 0 -22 -10 -5 -13 -9 -14 -20 -5 -18 15 -18 30 0 23 19
-7 29 11 13 25 -10 7 -17 5 -29 -8z"/>
<path d="M1376 1822 c-2 -4 -1 -14 4 -22 7 -11 12 -12 21 -3 6 6 8 16 5 22 -8
13 -23 14 -30 3z"/>
<path d="M1347 1794 c-3 -3 -3 -13 1 -22 5 -14 3 -15 -10 -5 -16 14 -28 8 -28
-14 0 -7 6 -13 13 -13 17 0 59 44 50 53 -8 9 -18 9 -26 1z"/>
<path d="M1714 1779 c-10 -17 13 -36 27 -22 12 12 4 33 -11 33 -5 0 -12 -5
-16 -11z"/>
<path d="M1597 1774 c-14 -14 -7 -35 11 -32 9 2 17 10 17 17 0 16 -18 25 -28
15z"/>
<path d="M1374 1759 c-8 -14 11 -33 25 -25 11 7 4 36 -9 36 -5 0 -12 -5 -16
-11z"/>
<path d="M1412 1723 c-19 -18 -28 -33 -20 -33 7 0 30 -11 51 -25 40 -28 44
-26 25 8 -6 12 -14 36 -17 52 l-6 30 -33 -32z"/>
<path d="M1550 1743 c0 -10 -9 -38 -20 -62 -11 -24 -15 -39 -8 -33 7 6 31 21
54 34 l40 23 -33 28 c-29 25 -33 26 -33 10z"/>
<path d="M1040 1275 c0 -20 5 -25 24 -25 30 0 42 16 26 35 -21 25 -50 19 -50
-10z"/>
<path d="M1880 1270 c0 -23 5 -30 19 -30 28 0 47 26 31 45 -7 8 -21 15 -31 15
-14 0 -19 -7 -19 -30z"/>
<path d="M2112 1284 c-28 -19 -28 -59 -1 -77 27 -19 58 -10 65 19 13 49 -27
84 -64 58z"/>
</g>
</svg>
